<?xml version="1.0" encoding="utf-8"?>
<!-- Generator: Adobe Illustrator 16.0.0, SVG Export Plug-In . SVG Version: 6.00 Build 0)  -->
<!DOCTYPE svg PUBLIC "-//W3C//DTD SVG 1.1//EN" "http://www.w3.org/Graphics/SVG/1.1/DTD/svg11.dtd">
<svg version="1.1" id="logo" xmlns="http://www.w3.org/2000/svg" xmlns:xlink="http://www.w3.org/1999/xlink" x="0px" y="0px"
	 width="160px" height="80px" viewBox="0 0 160 80" enable-background="new 0 0 160 80" xml:space="preserve">
<g>
	<path fill="#FF7BAC" stroke="#FF7BAC" stroke-width="0.25" stroke-miterlimit="10" d="M58.481,17.295
		c-0.185,0-0.361-0.036-0.542-0.056l-31.046,42.87l-9.679-21.667L6.656,41.797l0.33,0.935l7.699-2.42l10.779,24.143l33.051-45.589
		v-1.569H58.481z"/>
</g>
<line fill="#FF7BAC" stroke="#FF7BAC" stroke-width="2" stroke-miterlimit="10" x1="58" y1="18" x2="153" y2="18"/>
<g>
	<path fill="#FF00FF" d="M9.516,13.928l0.129-0.352h4.57c0.766,0,1.449,0.121,2.051,0.363s1.051,0.576,1.348,1.002
		s0.445,0.877,0.445,1.354c0,0.734-0.266,1.4-0.797,1.998s-1.398,1.037-2.602,1.318c0.773,0.289,1.344,0.672,1.711,1.148
		s0.551,1,0.551,1.57c0,0.641-0.164,1.25-0.492,1.828s-0.748,1.027-1.26,1.348s-1.131,0.555-1.857,0.703
		c-0.516,0.109-1.32,0.164-2.414,0.164H6.211l0.129-0.352c0.484-0.008,0.816-0.055,0.996-0.141c0.25-0.109,0.43-0.25,0.539-0.422
		c0.148-0.242,0.348-0.789,0.598-1.641l2.297-7.746c0.195-0.656,0.293-1.117,0.293-1.383c0-0.227-0.086-0.408-0.258-0.545
		s-0.5-0.205-0.984-0.205C9.711,13.94,9.609,13.936,9.516,13.928z M9.574,25.542c0.68,0.086,1.211,0.129,1.594,0.129
		c0.977,0,1.844-0.295,2.602-0.885s1.137-1.393,1.137-2.408c0-0.773-0.234-1.377-0.703-1.811s-1.223-0.65-2.262-0.65
		c-0.203,0-0.449,0.012-0.738,0.035L9.574,25.542z M11.426,19.237c0.414,0.016,0.711,0.023,0.891,0.023
		c1.305,0,2.277-0.285,2.918-0.855s0.961-1.281,0.961-2.133c0-0.648-0.195-1.154-0.586-1.518s-1.012-0.545-1.863-0.545
		c-0.227,0-0.52,0.039-0.879,0.117L11.426,19.237z"/>
	<path fill="#FF00FF" d="M19.465,18.37l3.258-0.539l-1.359,4.594c1.102-1.883,2.102-3.199,3-3.949
		c0.508-0.43,0.922-0.645,1.242-0.645c0.211,0,0.375,0.063,0.492,0.188s0.176,0.305,0.176,0.539c0,0.414-0.105,0.809-0.316,1.184
		c-0.148,0.281-0.367,0.422-0.656,0.422c-0.141,0-0.264-0.047-0.369-0.141s-0.17-0.238-0.193-0.434
		c-0.008-0.117-0.035-0.195-0.082-0.234c-0.055-0.047-0.113-0.07-0.176-0.07c-0.109,0-0.211,0.023-0.305,0.07
		c-0.164,0.086-0.414,0.332-0.75,0.738c-0.523,0.617-1.09,1.414-1.699,2.391c-0.258,0.414-0.484,0.883-0.68,1.406
		c-0.258,0.719-0.406,1.152-0.445,1.301l-0.305,1.184h-1.441l1.746-5.859c0.195-0.68,0.293-1.164,0.293-1.453
		c0-0.109-0.047-0.203-0.141-0.281c-0.125-0.102-0.289-0.152-0.492-0.152c-0.133,0-0.375,0.027-0.727,0.082L19.465,18.37z"/>
	<path fill="#FF00FF" d="M35.051,17.831l-1.84,6.398L33,25.096c-0.016,0.078-0.023,0.145-0.023,0.199
		c0,0.102,0.031,0.191,0.094,0.27c0.047,0.055,0.109,0.082,0.188,0.082s0.184-0.051,0.316-0.152c0.242-0.18,0.57-0.555,0.984-1.125
		l0.316,0.223c-0.43,0.656-0.875,1.154-1.336,1.494s-0.887,0.51-1.277,0.51c-0.266,0-0.467-0.066-0.604-0.199
		s-0.205-0.328-0.205-0.586c0-0.313,0.07-0.719,0.211-1.219l0.199-0.715c-0.828,1.078-1.586,1.832-2.273,2.262
		c-0.5,0.305-0.988,0.457-1.465,0.457c-0.461,0-0.857-0.189-1.189-0.568s-0.498-0.9-0.498-1.564c0-1,0.299-2.057,0.896-3.17
		s1.361-2.002,2.291-2.666c0.719-0.531,1.398-0.797,2.039-0.797c0.391,0,0.713,0.102,0.967,0.305s0.447,0.539,0.58,1.008l0.34-1.078
		L35.051,17.831z M31.688,18.323c-0.398,0-0.824,0.191-1.277,0.574c-0.648,0.531-1.223,1.322-1.723,2.373s-0.75,2.002-0.75,2.854
		c0,0.422,0.107,0.758,0.322,1.008s0.463,0.375,0.744,0.375c0.68,0,1.422-0.508,2.227-1.523c1.078-1.344,1.617-2.723,1.617-4.137
		c0-0.531-0.104-0.918-0.311-1.16S32.047,18.323,31.688,18.323z"/>
	<path fill="#FF00FF" d="M36.047,18.417l2.73-0.586c0.195,0.469,0.352,0.945,0.469,1.43c0.172,0.711,0.313,1.555,0.422,2.531
		c0.047,0.492,0.113,1.527,0.199,3.105c0.789-0.867,1.258-1.402,1.406-1.605c0.836-1.125,1.316-1.785,1.441-1.98
		c0.203-0.336,0.348-0.629,0.434-0.879c0.07-0.188,0.105-0.367,0.105-0.539c0-0.164-0.146-0.354-0.439-0.568
		s-0.439-0.455-0.439-0.721c0-0.195,0.08-0.373,0.24-0.533s0.35-0.24,0.568-0.24c0.266,0,0.498,0.109,0.697,0.328
		s0.299,0.488,0.299,0.809s-0.051,0.629-0.152,0.926c-0.156,0.477-0.459,1.059-0.908,1.746s-1.17,1.613-2.162,2.777
		c-0.125,0.141-0.824,0.867-2.098,2.18h-0.34c-0.156-3.977-0.473-6.461-0.949-7.453c-0.156-0.32-0.418-0.48-0.785-0.48
		c-0.156,0-0.379,0.031-0.668,0.094L36.047,18.417z"/>
	<path fill="#FF00FF" d="M46.512,22.823c-0.039,0.313-0.059,0.57-0.059,0.773c0,0.563,0.197,1.041,0.592,1.436
		s0.877,0.592,1.447,0.592c0.453,0,0.889-0.094,1.307-0.281s1.037-0.598,1.857-1.23l0.199,0.27
		c-1.492,1.477-2.914,2.215-4.266,2.215c-0.914,0-1.604-0.289-2.068-0.867s-0.697-1.215-0.697-1.91c0-0.938,0.289-1.896,0.867-2.877
		s1.303-1.744,2.174-2.291s1.771-0.82,2.701-0.82c0.664,0,1.156,0.137,1.477,0.41s0.48,0.594,0.48,0.961
		c0,0.523-0.207,1.023-0.621,1.5c-0.547,0.625-1.352,1.129-2.414,1.512C48.785,22.471,47.793,22.674,46.512,22.823z M46.582,22.354
		c0.93-0.109,1.688-0.293,2.273-0.551c0.773-0.344,1.354-0.756,1.74-1.236s0.58-0.939,0.58-1.377c0-0.258-0.084-0.469-0.252-0.633
		s-0.404-0.246-0.709-0.246c-0.641,0-1.32,0.34-2.039,1.02S46.926,21.018,46.582,22.354z"/>
</g>
<g>
	<path fill="#FF0000" d="M67.32,25.291l-9.105,31.711c-0.516,1.875-0.773,3.223-0.773,4.043c0,0.703,0.24,1.242,0.721,1.617
		c0.48,0.375,1.6,0.621,3.357,0.738l-0.281,1.055H46.684L47.07,63.4c1.547-0.023,2.566-0.141,3.059-0.352
		c0.796-0.352,1.394-0.809,1.793-1.371c0.609-0.867,1.23-2.426,1.863-4.676l6.574-22.782c0.398-1.383,0.621-2.167,0.668-2.355
		c0.047-0.375,0.07-0.75,0.07-1.125c0-0.656-0.176-1.172-0.527-1.547c-0.352-0.375-0.844-0.563-1.477-0.563
		c-0.492,0-1.254,0.118-2.285,0.352l-0.387-1.02l9.563-2.672H67.32z"/>
	<path fill="#FF0000" d="M68.887,65.123v-0.879c1.945-0.422,3.645-1.031,5.098-1.828c2.531-1.406,4.811-3.135,6.838-5.186
		s3.838-4.436,5.432-7.154c-1.148,0.563-2.045,0.932-2.689,1.107s-1.365,0.264-2.162,0.264c-2.836,0-5.01-0.973-6.521-2.918
		s-2.268-4.207-2.268-6.785c0-4.523,1.465-8.397,4.395-11.62c2.93-3.222,6.047-4.834,9.352-4.834c3,0,5.303,1.125,6.908,3.375
		s2.408,4.887,2.408,7.91c0,3.82-0.885,7.6-2.654,11.338s-4.178,6.955-7.225,9.65s-6.234,4.699-9.563,6.012
		C74.242,64.35,71.793,64.864,68.887,65.123z M87.66,47.721c2.672-5.391,4.008-10.208,4.008-14.45c0-2.062-0.504-3.656-1.512-4.781
		s-2.191-1.688-3.551-1.688c-2.227,0-4.26,1.553-6.1,4.658c-1.84,3.106-2.76,6.803-2.76,11.092c0,2.273,0.527,3.99,1.582,5.15
		s2.367,1.74,3.938,1.74c0.727,0,1.395-0.111,2.004-0.334S86.676,48.424,87.66,47.721z"/>
	<path fill="#FF0000" d="M114.39,42.975c1.828,1.969,3.158,3.809,3.99,5.52s1.248,3.422,1.248,5.133
		c0,3.094-1.166,5.783-3.498,8.068s-5.221,3.428-8.666,3.428c-3.07,0-5.572-0.932-7.506-2.795s-2.9-4.037-2.9-6.521
		c0-2.133,0.785-4.23,2.355-6.293s4.547-4.043,8.93-5.941c-1.688-2.063-2.824-3.762-3.41-5.098s-0.879-2.66-0.879-3.973
		c0-2.531,0.938-4.699,2.813-6.504c1.875-1.805,4.23-2.707,7.066-2.707c2.719,0,4.939,0.786,6.662,2.355
		c1.723,1.57,2.584,3.398,2.584,5.484c0,2.063-0.697,3.943-2.092,5.643C119.692,40.473,117.46,41.873,114.39,42.975z
		 M109.397,44.732c-2.813,1.172-4.939,2.865-6.381,5.08s-2.162,4.6-2.162,7.154c0,2.039,0.633,3.686,1.898,4.939
		s2.941,1.881,5.027,1.881c2.156,0,3.967-0.75,5.432-2.25s2.197-3.305,2.197-5.414c0-1.57-0.428-3.229-1.283-4.975
		S111.694,47.264,109.397,44.732z M113.3,41.779c2.039-0.703,3.621-1.846,4.746-3.428s1.688-3.404,1.688-5.467
		c0-1.921-0.545-3.433-1.635-4.535c-1.09-1.102-2.514-1.652-4.271-1.652c-1.664,0-3.018,0.527-4.061,1.582s-1.564,2.426-1.564,4.113
		c0,1.266,0.27,2.438,0.809,3.516C109.808,37.478,111.237,39.436,113.3,41.779z"/>
	<path fill="#FF0000" d="M149.874,26.064l-7.348,25.243h4.605l-1.02,3.516h-4.641l-2.988,10.301h-4.148l2.988-10.301h-13.852
		l1.16-3.938l23.063-24.821H149.874z M143.581,33.376l-16.488,17.93h11.32L143.581,33.376z"/>
</g>
<g>
</g>
<g>
</g>
<g>
</g>
<g>
</g>
<g>
</g>
<g>
</g>
<g>
</g>
<g>
</g>
<g>
</g>
<g>
</g>
<g>
</g>
<g>
</g>
<g>
</g>
<g>
</g>
<g>
</g>
</svg>
