<svg height="15" viewBox="0 0 380 15" width="380" xmlns="http://www.w3.org/2000/svg"><path d="m631.415766 6401.93055 11.090602 9.1253c2.41858 1.99021 5.907535 1.99021 8.326115-.00055l6.926438-5.69944c2.41858-1.98965 5.907534-1.98965 8.326668 0l6.926991 5.69999c2.41858 1.99021 5.907535 1.99021 8.326115-.00055l6.926438-5.69944c2.41858-1.98965 5.908088-1.98965 8.326668 0l6.926991 5.69999c2.41858 1.99021 5.907535 1.99021 8.326115 0l6.926991-5.69999c2.418027-1.98965 5.907535-1.98965 8.326115 0l6.926991 5.69999c2.419134 1.99021 5.908088 1.99021 8.326669 0l6.926437-5.69999c2.418581-1.98965 5.907535-1.98965 8.326669 0l6.927544 5.69999c2.418581 1.99021 5.906981 1.99021 8.325562 0l6.926991-5.69999c2.41858-1.98965 5.908088-1.98965 8.326668 0l6.926991 5.69999c2.418581 1.99021 5.906982 1.99021 8.326115 0l6.927545-5.69999c2.41858-1.98965 5.907535-1.98965 8.326115 0l6.926991 5.69999c2.41858 1.99021 5.908088 1.99021 8.326668 0l6.926992-5.69999c2.418026-1.98965 5.906981-1.98965 8.325561 0l6.928652 5.69999c2.41858 1.99021 5.907534 1.99021 8.326114 0l6.926992-5.69999c2.41858-1.98965 5.907534-1.98965 8.326115 0l6.927544 5.69999c2.41858 1.99021 5.907535 1.99021 8.326115 0l6.926991-5.69999c2.419134-1.98965 5.907535-1.98965 8.326115 0l6.928098 5.69999c2.41858 1.99021 5.907535 1.99021 8.326115 0l6.928098-5.70054c2.419134-1.9891 5.906981-1.9891 8.325562 0l6.928098 5.70054c2.41858 1.99021 5.908088 1.98966 8.326668-.00055l6.924777-5.69889c2.418581-1.9902 5.906981-1.9902 8.326669-.00055l6.926437 5.69999c2.419134 1.99021 5.908088 1.99021 8.326669-.00055l6.925331-5.69889c2.41858-1.9902 5.907534-1.9902 8.326668 0l6.92588 5.69889" fill="none" opacity=".5" stroke="#364e61" stroke-width="3" transform="translate(-630 -6400)"/></svg>