<?xml version="1.0" encoding="UTF-8"?>
<svg xmlns="http://www.w3.org/2000/svg" style="display: none;">
  <symbol id="github" viewBox="0 0 496 512">
    <title id="github-title">GitHub</title>
    <path fill="currentColor" d="M165.9 397.4c0 2-2.3 3.6-5.2 3.6-3.3.3-5.6-1.3-5.6-3.6 0-2 2.3-3.6 5.2-3.6 3-.3 5.6 1.3 5.6 3.6zm-31.1-4.5c-.7 2 1.3 4.3 4.3 4.9 2.6 1 5.6 0 6.2-2s-1.3-4.3-4.3-5.2c-2.6-.7-5.5.3-6.2 2.3zm44.2-1.7c-2.9.7-4.9 2.6-4.6 4.9.3 2 2.9 3.3 5.9 2.6 2.9-.7 4.9-2.6 4.6-4.6-.3-1.9-3-3.2-5.9-2.9zM244.8 8C106.1 8 0 113.3 0 252c0 110.9 69.8 205.8 169.5 239.2 12.8 2.3 17.3-5.6 17.3-12.1 0-6.2-.3-40.4-.3-61.4 0 0-70 15-84.7-29.8 0 0-11.4-29.1-27.8-36.6 0 0-22.9-15.7 1.6-15.4 0 0 24.9 2 38.6 25.8 21.9 38.6 58.6 27.5 72.9 20.9 2.3-16 8.8-27.1 16-33.7-55.9-6.2-112.3-14.3-112.3-110.5 0-27.5 7.6-41.3 23.6-58.9-2.6-6.5-11.1-33.3 2.6-67.9 20.9-6.5 69 27 69 27 20-5.6 41.5-8.5 62.8-8.5s42.8 2.9 62.8 8.5c0 0 48.1-33.6 69-27 13.7 34.7 5.2 61.4 2.6 67.9 16 17.7 25.8 31.5 25.8 58.9 0 96.5-58.9 104.2-114.8 110.5 9.2 7.9 17 22.9 17 46.4 0 33.7-.3 75.4-.3 83.6 0 6.5 4.6 14.4 17.3 12.1C428.2 457.8 496 362.9 496 252 496 113.3 383.5 8 244.8 8zM97.2 352.9c-1.3 1-1 3.3.7 5.2 1.6 1.6 3.9 2.3 5.2 1 1.3-1 1-3.3-.7-5.2-1.6-1.6-3.9-2.3-5.2-1zm-10.8-8.1c-.7 1.3.3 2.9 2.3 3.9 1.6 1 3.6.7 4.3-.7.7-1.3-.3-2.9-2.3-3.9-2-.6-3.6-.3-4.3.7zm32.4 35.6c-1.6 1.3-1 4.3 1.3 6.2 2.3 2.3 5.2 2.6 6.5 1 1.3-1.3.7-4.3-1.3-6.2-2.2-2.3-5.2-2.6-6.5-1zm-11.4-14.7c-1.6 1-1.6 3.6 0 5.9 1.6 2.3 4.3 3.3 5.6 2.3 1.6-1.3 1.6-3.9 0-6.2-1.4-2.3-4-3.3-5.6-2z"/>
  </symbol>
  <symbol id="twitter" viewBox="0 0 512 512">
    <title id="twitter-title">Twitter</title>
    <path fill="currentColor" d="M459.37 151.716c.325 4.548.325 9.097.325 13.645 0 138.72-105.583 298.558-298.558 298.558-59.452 0-114.68-17.219-161.137-47.106 8.447.974 16.568 1.299 25.34 1.299 49.055 0 94.213-16.568 130.274-44.832-46.132-.975-84.792-31.188-98.112-72.772 6.498.974 12.995 1.624 19.818 1.624 9.421 0 18.843-1.3 27.614-3.573-48.081-9.747-84.143-51.98-84.143-102.985v-1.299c13.969 7.797 30.214 12.67 47.431 13.319-28.264-18.843-46.781-51.005-46.781-87.391 0-19.492 5.197-37.36 14.294-52.954 51.655 63.675 129.3 105.258 216.365 109.807-1.624-7.797-2.599-15.918-2.599-24.04 0-57.828 46.782-104.934 104.934-104.934 30.213 0 57.502 12.67 76.67 33.137 23.715-4.548 46.456-13.32 66.599-25.34-7.798 24.366-24.366 44.833-46.132 57.827 21.117-2.273 41.584-8.122 60.426-16.243-14.292 20.791-32.161 39.308-52.628 54.253z"/>
  </symbol>
  <symbol id="envelope" viewBox="0 0 512 512">
    <title id="envelope-title">Mail</title>
    <path fill="currentColor" d="M464 64H48C21.49 64 0 85.49 0 112v288c0 26.51 21.49 48 48 48h416c26.51 0 48-21.49 48-48V112c0-26.51-21.49-48-48-48zm0 48v40.805c-22.422 18.259-58.168 46.651-134.587 106.49-16.841 13.247-50.201 45.072-73.413 44.701-23.208.375-56.579-31.459-73.413-44.701C106.18 199.465 70.425 171.067 48 152.805V112h416zM48 400V214.398c22.914 18.251 55.409 43.862 104.938 82.646 21.857 17.205 60.134 55.186 103.062 54.955 42.717.231 80.509-37.199 103.053-54.947 49.528-38.783 82.032-64.401 104.947-82.653V400H48z"/>
  </symbol>
  <symbol id="rss" viewBox="0 0 448 512">
    <title id="rss-title">RSS</title>
    <path fill="currentColor" d="M128.081 415.959c0 35.369-28.672 64.041-64.041 64.041S0 451.328 0 415.959s28.672-64.041 64.041-64.041 64.04 28.673 64.04 64.041zm175.66 47.25c-8.354-154.6-132.185-278.587-286.95-286.95C7.656 175.765 0 183.105 0 192.253v48.069c0 8.415 6.49 15.472 14.887 16.018 111.832 7.284 201.473 96.702 208.772 208.772.547 8.397 7.604 14.887 16.018 14.887h48.069c9.149.001 16.489-7.655 15.995-16.79zm144.249.288C439.596 229.677 251.465 40.445 16.503 32.01 7.473 31.686 0 38.981 0 48.016v48.068c0 8.625 6.835 15.645 15.453 15.999 191.179 7.839 344.627 161.316 352.465 352.465.353 8.618 7.373 15.453 15.999 15.453h48.068c9.034-.001 16.329-7.474 16.005-16.504z"/>
  </symbol>
  <symbol id="facebook-f" viewBox="0 0 264 512">
    <title id="facebook-f-title">Facebook F</title>
    <path fill="currentColor" d="M215.8 85H264V3.6C255.7 2.5 227.1 0 193.8 0 124.3 0 76.7 42.4 76.7 120.3V192H0v91h76.7v229h94V283h73.6l11.7-91h-85.3v-62.7c0-26.3 7.3-44.3 45.1-44.3z" />
  </symbol>
   <symbol id="google-plus-g" viewBox="0 0 640 512">
    <title id="google-plus-g-title">Google Plus G</title>
    <path fill="currentColor" d="M386.061 228.496c1.834 9.692 3.143 19.384 3.143 31.956C389.204 370.205 315.599 448 204.8 448c-106.084 0-192-85.915-192-192s85.916-192 192-192c51.864 0 95.083 18.859 128.611 50.292l-52.126 50.03c-14.145-13.621-39.028-29.599-76.485-29.599-65.484 0-118.92 54.221-118.92 121.277 0 67.056 53.436 121.277 118.92 121.277 75.961 0 104.513-54.745 108.965-82.773H204.8v-66.009h181.261zm185.406 6.437V179.2h-56.001v55.733h-55.733v56.001h55.733v55.733h56.001v-55.733H627.2v-56.001h-55.733z" />
  </symbol>
  <symbol id="amazon" viewBox="0 0 448 512">
    <title id="amazon-title">Amazon</title>
    <path fill="currentColor" d="M257.2 162.7c-48.7 1.8-169.5 15.5-169.5 117.5 0 109.5 138.3 114 183.5 43.2 6.5 10.2 35.4 37.5 45.3 46.8l56.8-56S341 288.9 341 261.4V114.3C341 89 316.5 32 228.7 32 140.7 32 94 87 94 136.3l73.5 6.8c16.3-49.5 54.2-49.5 54.2-49.5 40.7-.1 35.5 29.8 35.5 69.1zm0 86.8c0 80-84.2 68-84.2 17.2 0-47.2 50.5-56.7 84.2-57.8v40.6zm136 163.5c-7.7 10-70 67-174.5 67S34.2 408.5 9.7 379c-6.8-7.7 1-11.3 5.5-8.3C88.5 415.2 203 488.5 387.7 401c7.5-3.7 13.3 2 5.5 12zm39.8 2.2c-6.5 15.8-16 26.8-21.2 31-5.5 4.5-9.5 2.7-6.5-3.8s19.3-46.5 12.7-55c-6.5-8.3-37-4.3-48-3.2-10.8 1-13 2-14-.3-2.3-5.7 21.7-15.5 37.5-17.5 15.7-1.8 41-.8 46 5.7 3.7 5.1 0 27.1-6.5 43.1z"/>
  </symbol>
  <symbol id="arrow-alt-to-top" viewBox="0 0 384 512">
    <title id="arrow-alt-to-top-title">返回顶部</title>
    <path fill="#868e96" d="M24 32h336c13.3 0 24 10.7 24 24v24c0 13.3-10.7 24-24 24H24C10.7 104 0 93.3 0 80V56c0-13.3 10.7-24 24-24zm232 424V320h87.7c17.8 0 26.7-21.5 14.1-34.1L205.7 133.7c-7.5-7.5-19.8-7.5-27.3 0L26.1 285.9C13.5 298.5 22.5 320 40.3 320H128v136c0 13.3 10.7 24 24 24h80c13.3 0 24-10.7 24-24z"/>
  </symbol>
  <symbol id="reply" viewBox="0 0 512 512">
    <title id="reply-title">Reply</title>
    <path fill="currentColor" d="M8.309 189.836L184.313 37.851C199.719 24.546 224 35.347 224 56.015v80.053c160.629 1.839 288 34.032 288 186.258 0 61.441-39.581 122.309-83.333 154.132-13.653 9.931-33.111-2.533-28.077-18.631 45.344-145.012-21.507-183.51-176.59-185.742V360c0 20.7-24.3 31.453-39.687 18.164l-176.004-152c-11.071-9.562-11.086-26.753 0-36.328z" />
  </symbol>
  <symbol id="logo" viewBox="0 0 160 80">
    <title id="logo-title">首页</title>
    <g>
      <path fill="#FF7BAC" stroke="#FF7BAC" stroke-width="0.25" stroke-miterlimit="10" d="M58.481,17.295
		c-0.185,0-0.361-0.036-0.542-0.056l-31.046,42.87l-9.679-21.667L6.656,41.797l0.33,0.935l7.699-2.42l10.779,24.143l33.051-45.589
		v-1.569H58.481z"/>
    </g>
    <line fill="#FF7BAC" stroke="#FF7BAC" stroke-width="2" stroke-miterlimit="10" x1="58" y1="18" x2="153" y2="18"/>
    <g>
      <path fill="#FF00FF" d="M9.516,13.928l0.129-0.352h4.57c0.766,0,1.449,0.121,2.051,0.363s1.051,0.576,1.348,1.002
		s0.445,0.877,0.445,1.354c0,0.734-0.266,1.4-0.797,1.998s-1.398,1.037-2.602,1.318c0.773,0.289,1.344,0.672,1.711,1.148
		s0.551,1,0.551,1.57c0,0.641-0.164,1.25-0.492,1.828s-0.748,1.027-1.26,1.348s-1.131,0.555-1.857,0.703
		c-0.516,0.109-1.32,0.164-2.414,0.164H6.211l0.129-0.352c0.484-0.008,0.816-0.055,0.996-0.141c0.25-0.109,0.43-0.25,0.539-0.422
		c0.148-0.242,0.348-0.789,0.598-1.641l2.297-7.746c0.195-0.656,0.293-1.117,0.293-1.383c0-0.227-0.086-0.408-0.258-0.545
		s-0.5-0.205-0.984-0.205C9.711,13.94,9.609,13.936,9.516,13.928z M9.574,25.542c0.68,0.086,1.211,0.129,1.594,0.129
		c0.977,0,1.844-0.295,2.602-0.885s1.137-1.393,1.137-2.408c0-0.773-0.234-1.377-0.703-1.811s-1.223-0.65-2.262-0.65
		c-0.203,0-0.449,0.012-0.738,0.035L9.574,25.542z M11.426,19.237c0.414,0.016,0.711,0.023,0.891,0.023
		c1.305,0,2.277-0.285,2.918-0.855s0.961-1.281,0.961-2.133c0-0.648-0.195-1.154-0.586-1.518s-1.012-0.545-1.863-0.545
		c-0.227,0-0.52,0.039-0.879,0.117L11.426,19.237z"/>
      <path fill="#FF00FF" d="M19.465,18.37l3.258-0.539l-1.359,4.594c1.102-1.883,2.102-3.199,3-3.949
		c0.508-0.43,0.922-0.645,1.242-0.645c0.211,0,0.375,0.063,0.492,0.188s0.176,0.305,0.176,0.539c0,0.414-0.105,0.809-0.316,1.184
		c-0.148,0.281-0.367,0.422-0.656,0.422c-0.141,0-0.264-0.047-0.369-0.141s-0.17-0.238-0.193-0.434
		c-0.008-0.117-0.035-0.195-0.082-0.234c-0.055-0.047-0.113-0.07-0.176-0.07c-0.109,0-0.211,0.023-0.305,0.07
		c-0.164,0.086-0.414,0.332-0.75,0.738c-0.523,0.617-1.09,1.414-1.699,2.391c-0.258,0.414-0.484,0.883-0.68,1.406
		c-0.258,0.719-0.406,1.152-0.445,1.301l-0.305,1.184h-1.441l1.746-5.859c0.195-0.68,0.293-1.164,0.293-1.453
		c0-0.109-0.047-0.203-0.141-0.281c-0.125-0.102-0.289-0.152-0.492-0.152c-0.133,0-0.375,0.027-0.727,0.082L19.465,18.37z"/>
      <path fill="#FF00FF" d="M35.051,17.831l-1.84,6.398L33,25.096c-0.016,0.078-0.023,0.145-0.023,0.199
		c0,0.102,0.031,0.191,0.094,0.27c0.047,0.055,0.109,0.082,0.188,0.082s0.184-0.051,0.316-0.152c0.242-0.18,0.57-0.555,0.984-1.125
		l0.316,0.223c-0.43,0.656-0.875,1.154-1.336,1.494s-0.887,0.51-1.277,0.51c-0.266,0-0.467-0.066-0.604-0.199
		s-0.205-0.328-0.205-0.586c0-0.313,0.07-0.719,0.211-1.219l0.199-0.715c-0.828,1.078-1.586,1.832-2.273,2.262
		c-0.5,0.305-0.988,0.457-1.465,0.457c-0.461,0-0.857-0.189-1.189-0.568s-0.498-0.9-0.498-1.564c0-1,0.299-2.057,0.896-3.17
		s1.361-2.002,2.291-2.666c0.719-0.531,1.398-0.797,2.039-0.797c0.391,0,0.713,0.102,0.967,0.305s0.447,0.539,0.58,1.008l0.34-1.078
		L35.051,17.831z M31.688,18.323c-0.398,0-0.824,0.191-1.277,0.574c-0.648,0.531-1.223,1.322-1.723,2.373s-0.75,2.002-0.75,2.854
		c0,0.422,0.107,0.758,0.322,1.008s0.463,0.375,0.744,0.375c0.68,0,1.422-0.508,2.227-1.523c1.078-1.344,1.617-2.723,1.617-4.137
		c0-0.531-0.104-0.918-0.311-1.16S32.047,18.323,31.688,18.323z"/>
      <path fill="#FF00FF" d="M36.047,18.417l2.73-0.586c0.195,0.469,0.352,0.945,0.469,1.43c0.172,0.711,0.313,1.555,0.422,2.531
		c0.047,0.492,0.113,1.527,0.199,3.105c0.789-0.867,1.258-1.402,1.406-1.605c0.836-1.125,1.316-1.785,1.441-1.98
		c0.203-0.336,0.348-0.629,0.434-0.879c0.07-0.188,0.105-0.367,0.105-0.539c0-0.164-0.146-0.354-0.439-0.568
		s-0.439-0.455-0.439-0.721c0-0.195,0.08-0.373,0.24-0.533s0.35-0.24,0.568-0.24c0.266,0,0.498,0.109,0.697,0.328
		s0.299,0.488,0.299,0.809s-0.051,0.629-0.152,0.926c-0.156,0.477-0.459,1.059-0.908,1.746s-1.17,1.613-2.162,2.777
		c-0.125,0.141-0.824,0.867-2.098,2.18h-0.34c-0.156-3.977-0.473-6.461-0.949-7.453c-0.156-0.32-0.418-0.48-0.785-0.48
		c-0.156,0-0.379,0.031-0.668,0.094L36.047,18.417z"/>
      <path fill="#FF00FF" d="M46.512,22.823c-0.039,0.313-0.059,0.57-0.059,0.773c0,0.563,0.197,1.041,0.592,1.436
		s0.877,0.592,1.447,0.592c0.453,0,0.889-0.094,1.307-0.281s1.037-0.598,1.857-1.23l0.199,0.27
		c-1.492,1.477-2.914,2.215-4.266,2.215c-0.914,0-1.604-0.289-2.068-0.867s-0.697-1.215-0.697-1.91c0-0.938,0.289-1.896,0.867-2.877
		s1.303-1.744,2.174-2.291s1.771-0.82,2.701-0.82c0.664,0,1.156,0.137,1.477,0.41s0.48,0.594,0.48,0.961
		c0,0.523-0.207,1.023-0.621,1.5c-0.547,0.625-1.352,1.129-2.414,1.512C48.785,22.471,47.793,22.674,46.512,22.823z M46.582,22.354
		c0.93-0.109,1.688-0.293,2.273-0.551c0.773-0.344,1.354-0.756,1.74-1.236s0.58-0.939,0.58-1.377c0-0.258-0.084-0.469-0.252-0.633
		s-0.404-0.246-0.709-0.246c-0.641,0-1.32,0.34-2.039,1.02S46.926,21.018,46.582,22.354z"/>
    </g>
    <g>
      <path fill="#FF0000" d="M67.32,25.291l-9.105,31.711c-0.516,1.875-0.773,3.223-0.773,4.043c0,0.703,0.24,1.242,0.721,1.617
		c0.48,0.375,1.6,0.621,3.357,0.738l-0.281,1.055H46.684L47.07,63.4c1.547-0.023,2.566-0.141,3.059-0.352
		c0.796-0.352,1.394-0.809,1.793-1.371c0.609-0.867,1.23-2.426,1.863-4.676l6.574-22.782c0.398-1.383,0.621-2.167,0.668-2.355
		c0.047-0.375,0.07-0.75,0.07-1.125c0-0.656-0.176-1.172-0.527-1.547c-0.352-0.375-0.844-0.563-1.477-0.563
		c-0.492,0-1.254,0.118-2.285,0.352l-0.387-1.02l9.563-2.672H67.32z"/>
      <path fill="#FF0000" d="M68.887,65.123v-0.879c1.945-0.422,3.645-1.031,5.098-1.828c2.531-1.406,4.811-3.135,6.838-5.186
		s3.838-4.436,5.432-7.154c-1.148,0.563-2.045,0.932-2.689,1.107s-1.365,0.264-2.162,0.264c-2.836,0-5.01-0.973-6.521-2.918
		s-2.268-4.207-2.268-6.785c0-4.523,1.465-8.397,4.395-11.62c2.93-3.222,6.047-4.834,9.352-4.834c3,0,5.303,1.125,6.908,3.375
		s2.408,4.887,2.408,7.91c0,3.82-0.885,7.6-2.654,11.338s-4.178,6.955-7.225,9.65s-6.234,4.699-9.563,6.012
		C74.242,64.35,71.793,64.864,68.887,65.123z M87.66,47.721c2.672-5.391,4.008-10.208,4.008-14.45c0-2.062-0.504-3.656-1.512-4.781
		s-2.191-1.688-3.551-1.688c-2.227,0-4.26,1.553-6.1,4.658c-1.84,3.106-2.76,6.803-2.76,11.092c0,2.273,0.527,3.99,1.582,5.15
		s2.367,1.74,3.938,1.74c0.727,0,1.395-0.111,2.004-0.334S86.676,48.424,87.66,47.721z"/>
      <path fill="#FF0000" d="M114.39,42.975c1.828,1.969,3.158,3.809,3.99,5.52s1.248,3.422,1.248,5.133
		c0,3.094-1.166,5.783-3.498,8.068s-5.221,3.428-8.666,3.428c-3.07,0-5.572-0.932-7.506-2.795s-2.9-4.037-2.9-6.521
		c0-2.133,0.785-4.23,2.355-6.293s4.547-4.043,8.93-5.941c-1.688-2.063-2.824-3.762-3.41-5.098s-0.879-2.66-0.879-3.973
		c0-2.531,0.938-4.699,2.813-6.504c1.875-1.805,4.23-2.707,7.066-2.707c2.719,0,4.939,0.786,6.662,2.355
		c1.723,1.57,2.584,3.398,2.584,5.484c0,2.063-0.697,3.943-2.092,5.643C119.692,40.473,117.46,41.873,114.39,42.975z
		 M109.397,44.732c-2.813,1.172-4.939,2.865-6.381,5.08s-2.162,4.6-2.162,7.154c0,2.039,0.633,3.686,1.898,4.939
		s2.941,1.881,5.027,1.881c2.156,0,3.967-0.75,5.432-2.25s2.197-3.305,2.197-5.414c0-1.57-0.428-3.229-1.283-4.975
		S111.694,47.264,109.397,44.732z M113.3,41.779c2.039-0.703,3.621-1.846,4.746-3.428s1.688-3.404,1.688-5.467
		c0-1.921-0.545-3.433-1.635-4.535c-1.09-1.102-2.514-1.652-4.271-1.652c-1.664,0-3.018,0.527-4.061,1.582s-1.564,2.426-1.564,4.113
		c0,1.266,0.27,2.438,0.809,3.516C109.808,37.478,111.237,39.436,113.3,41.779z"/>
      <path fill="#FF0000" d="M149.874,26.064l-7.348,25.243h4.605l-1.02,3.516h-4.641l-2.988,10.301h-4.148l2.988-10.301h-13.852
		l1.16-3.938l23.063-24.821H149.874z M143.581,33.376l-16.488,17.93h11.32L143.581,33.376z"/>
    </g>
  </symbol>
</svg>
